<svg width="776" height="257" xmlns="http://www.w3.org/2000/svg"><g fill="none" fill-rule="evenodd"><g transform="translate(-1.081 -5.415)"><circle fill="#D89CFF" transform="rotate(5 283.188 75.214)" cx="283.188" cy="75.214" r="68.946"/><circle fill="#FE736F" transform="rotate(5 90.382 91.573)" cx="90.382" cy="91.573" r="39.264"/><circle fill="#FE9B93" transform="rotate(5 179.43 131.179)" cx="179.43" cy="131.179" r="103.577"/><circle fill="#F4ACE6" transform="rotate(5 313.407 209.992)" cx="313.407" cy="209.992" r="27.702"/><circle fill="#F4ACE6" transform="rotate(5 19.17 55.06)" cx="19.17" cy="55.061" r="17.316"/><circle fill="#FFCCC8" transform="rotate(5 86.399 203.549)" cx="86.399" cy="203.549" r="58.13"/></g><path d="M445.244 105.124c15.943-2.386 27.714-16.05 27.714-32.16 0-17.95-14.562-32.513-32.512-32.513h-4.254v66.04l9.052-1.367zm7.072 3.106a56.2 56.2 0 0 1 19.655 38.085l4.913 57.066a18.967 18.967 0 0 0 6.7 12.886 2.345 2.345 0 1 1-3.014 3.593 23.66 23.66 0 0 1-8.36-16.073l-4.913-57.07a51.523 51.523 0 0 0-20.723-37.054c-.21.035-.421.068-.632.1l-9.75 1.472v106.8a2.345 2.345 0 0 1-4.691 0V109.253a98483.48 98483.48 0 0 1 0-9.007v-62.14a2.345 2.345 0 0 1 2.345-2.346h6.6c20.54 0 37.203 16.662 37.203 37.204 0 16.21-10.418 30.257-25.333 35.266zm222.132-7.551l10.723-62.967c.444-2.603 4.182-2.602 4.625 0l30.613 179.929a2.345 2.345 0 0 1-4.624.787L696.549 105.37h-18.141l-19.254 113.058a2.345 2.345 0 0 1-4.625-.788l19.12-112.27h-4.736a2.345 2.345 0 1 1 0-4.691h5.535zm4.759 0h16.544l-8.268-48.596-8.276 48.596zm-157.82.058h29.285a2.345 2.345 0 1 1 0 4.691h-29.285v110.32h29.285a2.345 2.345 0 1 1 0 4.69h-31.63a2.345 2.345 0 0 1-2.346-2.345V38.164a2.345 2.345 0 0 1 2.346-2.345h31.63a2.345 2.345 0 0 1 0 4.69h-29.285v60.228zm117.787-63.022a2.345 2.345 0 1 1 4.626.781l-30.38 179.929c-.44 2.606-4.186 2.607-4.626 0l-30.41-179.928a2.345 2.345 0 0 1 4.625-.782l28.096 166.238 28.07-166.238zm97.453 130.635a2.345 2.345 0 1 1 4.691 0v35.41c0 6.5 6.561 11.958 14.836 11.958 8.276 0 14.837-5.457 14.837-11.958v-86.403c0-6.5-6.561-11.958-14.837-11.958-10.694 0-19.527-7.347-19.527-16.649V52.468c0-9.303 8.833-16.65 19.527-16.65 10.695 0 19.528 7.347 19.528 16.65v23.461a2.345 2.345 0 1 1-4.691 0V52.468c0-6.501-6.561-11.958-14.837-11.958-8.275 0-14.836 5.457-14.836 11.958V88.75c0 6.5 6.561 11.958 14.836 11.958 10.695 0 19.528 7.347 19.528 16.65v86.402c0 9.302-8.833 16.65-19.528 16.65-10.694 0-19.527-7.348-19.527-16.65v-35.41z" fill="#FE9B93" fill-rule="nonzero"/></g></svg>