<svg width="239" height="79" xmlns="http://www.w3.org/2000/svg"><g fill="#FFF" fill-rule="evenodd"><path d="M86.347 38.795c0 1.335-.084 2.653-.245 3.944C84.162 58.26 70.919 70.27 54.87 70.27c-4.28 0-8.362-.854-12.083-2.403a17.576 17.576 0 0 0 1.479-7.082c0-9.757-7.909-17.665-17.665-17.665-.98 0-1.942.08-2.878.235a31.669 31.669 0 0 1-.314-5.504c.25-8.56 3.92-16.264 9.692-21.79a31.356 31.356 0 0 1 21.77-8.745c4.974 0 9.678 1.153 13.86 3.209 10.433 5.125 17.616 15.858 17.616 28.269"/><path d="M33.1 16.062c-5.771 5.526-9.44 13.23-9.691 21.79-4.411-1.75-7.53-6.057-7.53-11.093 0-6.59 5.341-11.933 11.932-11.933 1.899 0 3.696.444 5.29 1.236" fill-opacity=".6"/><path d="M44.266 60.786c0 2.518-.528 4.914-1.48 7.082-2.727 6.23-8.947 10.583-16.185 10.583-9.757 0-17.666-7.91-17.666-17.665 0-8.777 6.4-16.058 14.788-17.43a17.586 17.586 0 0 1 2.878-.235c9.756 0 17.665 7.908 17.665 17.665" fill-opacity=".87"/><path d="M.91 15.664a5.262 5.262 0 1 1 10.524 0 5.262 5.262 0 0 1-10.525 0" fill-opacity=".91"/><path d="M87.165 62.744a8.418 8.418 0 1 1 16.837 0 8.418 8.418 0 0 1-16.837 0M107.353 21.788c0 11.572-9.381 20.952-20.952 20.952l-.3-.001c.162-1.291.246-2.609.246-3.944 0-12.41-7.183-23.144-17.617-28.27C72.45 4.7 78.973.836 86.4.836c11.572 0 20.953 9.382 20.953 20.953" fill-opacity=".6"/><path d="M137.19 32.882c4.893-.706 8.507-4.749 8.507-9.516 0-5.312-4.47-9.62-9.981-9.62h-1.306v19.54l2.78-.404zm2.17.92c3.415 2.79 5.64 6.812 6.034 11.269l1.509 16.886a5.55 5.55 0 0 0 2.057 3.813.677.677 0 0 1 .088.977.739.739 0 0 1-1.014.086 6.924 6.924 0 0 1-2.566-4.756l-1.509-16.888c-.393-4.436-2.763-8.401-6.362-10.964l-.194.03-2.993.435v31.603a.707.707 0 0 1-.72.694.707.707 0 0 1-.72-.694v-32.19a28140.868 28140.868 0 0 1 0-2.664V13.05c0-.383.322-.694.72-.694h2.026c6.306 0 11.421 4.93 11.421 11.009 0 4.797-3.198 8.953-7.777 10.435zm68.195-2.235l3.292-18.632c.136-.77 1.284-.77 1.42 0l9.398 53.241a.697.697 0 0 1-.59.8.718.718 0 0 1-.83-.567l-5.905-33.454h-5.57l-5.91 33.454a.718.718 0 0 1-.831.568.697.697 0 0 1-.59-.8l5.87-33.222h-1.453a.707.707 0 0 1-.72-.694c0-.384.322-.694.72-.694h1.699zm1.46 0h5.08l-2.539-14.38-2.54 14.38zm-48.45.017h8.99c.398 0 .72.31.72.694a.707.707 0 0 1-.72.694h-8.99v32.644h8.99c.398 0 .72.31.72.694a.707.707 0 0 1-.72.694h-9.71a.707.707 0 0 1-.72-.694V13.068c0-.383.322-.694.72-.694h9.71c.398 0 .72.311.72.694a.707.707 0 0 1-.72.694h-8.99v17.822zm36.16-18.648a.718.718 0 0 1 .83-.57.697.697 0 0 1 .59.8l-9.326 53.242c-.135.772-1.285.772-1.42 0l-9.336-53.241a.697.697 0 0 1 .59-.8.718.718 0 0 1 .83.568l8.626 49.191 8.617-49.19zm29.919 38.655c0-.383.322-.694.72-.694.398 0 .72.31.72.694v10.478c0 1.923 2.014 3.538 4.555 3.538 2.54 0 4.554-1.615 4.554-3.538V36.502c0-1.924-2.014-3.539-4.554-3.539-3.284 0-5.995-2.174-5.995-4.926V17.3c0-2.753 2.711-4.927 5.995-4.927 3.283 0 5.995 2.174 5.995 4.927v6.942a.707.707 0 0 1-.72.694.707.707 0 0 1-.72-.694v-6.942c0-1.924-2.015-3.539-4.555-3.539-2.54 0-4.555 1.615-4.555 3.539v10.736c0 1.924 2.014 3.538 4.555 3.538 3.283 0 5.995 2.174 5.995 4.927v25.567c0 2.752-2.712 4.926-5.995 4.926-3.284 0-5.995-2.174-5.995-4.926V51.59z" fill-rule="nonzero"/></g></svg>